<?xml version="1.0" encoding="UTF-8" standalone="no"?>
<svg
   viewBox="0 0 10 10"
   version="1.1"
   id="icon"
   class="bevy-trait-icon"
   xmlns="http://www.w3.org/2000/svg"
   xmlns:svg="http://www.w3.org/2000/svg">
  <path
     d="M 8.748745,8.5000968 5.391719,6.5673363 a 0.66668202,0.66668202 5.1274587e-8 0 0 -0.6652825,0 L 1.2974684,8.5415165 A 0.05821357,0.05821357 45 0 1 1.2179731,8.4620212 L 3.1901625,5.0365109 a 0.67361219,0.67361219 90 0 0 0,-0.6721981 L 1.2518258,0.99760159 A 0.07648152,0.07648152 135 0 1 1.3562675,0.89315989 L 4.744422,2.8438422 a 0.6306353,0.6306353 5.1274604e-8 0 0 0.6293114,0 l 3.419283,-1.96860412 a 0.0668104,0.0668104 45 0 1 0.091235,0.091235 L 6.9542789,4.3186565 a 0.76511662,0.76511662 90 0 0 0,0.7635105 L 8.8587628,8.3900791 A 0.08056482,0.08056482 135 0 1 8.748745,8.5000968 Z"
     transform="matrix(0.62106212,-0.62106212,0.62106212,0.62106212,-1.0965573,5.2252001)"/>
</svg>
