<?xml version="1.0" encoding="UTF-8" standalone="no"?>
<svg
   viewBox="0 0 10 10"
   version="1.1"
   id="icon"
   class="bevy-trait-icon"
   xmlns="http://www.w3.org/2000/svg"
   xmlns:svg="http://www.w3.org/2000/svg">
  <path
     d="M 5.6095883,0.6383051 C 4.9762341,0.63829814 4.4624122,1.0151543 4.4631039,1.480102 4.4641739,1.850949 4.9553563,2.0965807 5.1388851,2.183227 5.2435832,2.232657 5.1659384,2.336695 5.0802914,2.417602 3.7632421,2.378289 2.2384945,2.2750238 2.2384945,2.2750238 c 0,0 -0.2423757,1.5126491 -0.28125,2.875 0.014699,-0.00228 0.029002,-0.00807 0.042969,-0.015625 -0.013966,0.00755 -0.02827,0.013341 -0.042969,0.015625 -0.037581,0.00584 -0.078484,-0.00769 -0.1171875,-0.054687 C 1.6802559,4.9012993 1.4895597,4.4853128 1.1349789,4.4840082 0.6700312,4.4833166 0.29317499,4.9971385 0.29318195,5.6304926 c -6.96e-6,0.6333543 0.37684926,1.1471759 0.84179695,1.1464844 0.370847,-0.00106 0.6164787,-0.4922526 0.703125,-0.6757813 0.028733,-0.060859 0.076371,-0.057297 0.1269531,-0.029297 0.056135,1.3461632 0.2734375,2.8066407 0.2734375,2.8066407 0,0 1.4586704,-0.1820857 2.7207031,-0.2285157 0.096676,-0.0828 0.2135997,-0.210995 0.09375,-0.2675781 C 4.8694215,8.2957994 4.3801895,8.0482145 4.3791195,7.6773676 4.3784278,7.2124198 4.8902966,6.8355638 5.5236507,6.8355707 c 0.6333543,-6.9e-6 1.1471759,0.3768491 1.1464844,0.8417969 -0.0013,0.3545806 -0.415338,0.5472202 -0.609375,0.7070312 -0.1212731,0.099879 -0.022769,0.2048855 0.068359,0.2695313 l 0.00195,0.00195 c 1.2593437,0.051788 2.7128907,0.2226563 2.7128907,0.2226563 0,0 0.1811705,-1.4157714 0.21875,-2.8222657 C 8.9812346,5.9687671 8.8747872,5.8851624 8.824432,5.9918207 8.7377857,6.1753495 8.4902009,6.666532 8.1193539,6.667602 7.6544062,6.6682936 7.2775501,6.1544718 7.277557,5.5211176 c -6.9e-6,-0.6333541 0.3768492,-1.147176 0.8417969,-1.1464844 0.3545808,0.0013 0.5472251,0.4172911 0.7070312,0.6113282 0.082708,0.1004233 0.1685316,0.048626 0.2324219,-0.023438 -0.045098,-1.3605505 -0.2148437,-2.6874999 -0.2148437,-2.6875 0,0 -1.391339,0.1282436 -2.6621094,0.1523438 C 6.1033902,2.3625905 6.0404211,2.2727085 6.1466976,2.1851801 6.3407345,2.0253691 6.754768,1.8346828 6.7560726,1.480102 6.7567642,1.0151543 6.2429424,0.63829814 5.6095883,0.6383051 Z m 0.5976562,1.8085937 c 0.016429,0.012203 0.032052,0.023662 0.046875,0.033203 -0.014985,-0.00971 -0.030433,-0.02087 -0.046875,-0.033203 z M 2.1564633,4.9527582 c -0.00835,0.015134 -0.019828,0.034449 -0.033203,0.054687 0.012872,-0.019595 0.025087,-0.039983 0.033203,-0.054687 z M 2.0412289,5.1070551 c -0.00969,0.00842 -0.020949,0.01502 -0.03125,0.021484 0.010579,-0.00657 0.021313,-0.012845 0.03125,-0.021484 z m 0,1.0234375 c 0.025104,0.023519 0.049585,0.049914 0.070312,0.074219 0.041455,0.048609 0.070312,0.089844 0.070312,0.089844 0,0 -0.028858,-0.041234 -0.070312,-0.089844 -0.020728,-0.024305 -0.045209,-0.050699 -0.070312,-0.074219 z" />
</svg>
