<?xml version="1.0" encoding="UTF-8" standalone="no"?>
<svg
   viewBox="0 0 10 10"
   version="1.1"
   id="icon"
   class="bevy-trait-icon"
   xmlns="http://www.w3.org/2000/svg"
   xmlns:svg="http://www.w3.org/2000/svg">
  <path
     d="M 5 0 A 5 5 0 0 0 0 5 A 5 5 0 0 0 5 10 A 5 5 0 0 0 10 5 A 5 5 0 0 0 5 0 z M 5.3496094 1.2167969 A 3.8 3.8 0 0 1 8.2265625 2.9902344 L 5.3496094 2.9902344 L 5.3496094 1.2167969 z M 4.5175781 1.2382812 L 4.5175781 2.9902344 L 1.7871094 2.9902344 A 3.8 3.8 0 0 1 4.5175781 1.2382812 z M 1.3867188 3.8222656 L 4.5175781 3.8222656 L 4.5175781 6.0898438 L 1.3652344 6.0898438 A 3.8 3.8 0 0 1 1.1992188 5 A 3.8 3.8 0 0 1 1.3867188 3.8222656 z M 5.3496094 3.8222656 L 8.6132812 3.8222656 A 3.8 3.8 0 0 1 8.8007812 5 A 3.8 3.8 0 0 1 8.640625 6.0898438 L 5.3496094 6.0898438 L 5.3496094 3.8222656 z M 1.734375 6.921875 L 4.5175781 6.921875 L 4.5175781 8.7617188 A 3.8 3.8 0 0 1 1.734375 6.921875 z M 5.3496094 6.921875 L 8.2773438 6.921875 A 3.8 3.8 0 0 1 5.3496094 8.7832031 L 5.3496094 6.921875 z " />
</svg>
